<?xml version="1.0" encoding="UTF-8"?>
<svg id="Layer_1" data-name="Layer 1" xmlns="http://www.w3.org/2000/svg" version="1.1" xmlns:xlink="http://www.w3.org/1999/xlink" viewBox="0 0 463.7 517">
  <defs>
    <style>
      .cls-1 {
        filter: url(#outer-glow-55);
      }

      .cls-1, .cls-2 {
        isolation: isolate;
      }

      .cls-3 {
        filter: url(#outer-glow-32);
      }

      .cls-3, .cls-4, .cls-5, .cls-6, .cls-7, .cls-8, .cls-9, .cls-10, .cls-11, .cls-12, .cls-13, .cls-14, .cls-15, .cls-16, .cls-17, .cls-18, .cls-19, .cls-20, .cls-21, .cls-22, .cls-23, .cls-24, .cls-25, .cls-26, .cls-27, .cls-28, .cls-29, .cls-30, .cls-31, .cls-32, .cls-33, .cls-34, .cls-35, .cls-36, .cls-37, .cls-38, .cls-39, .cls-40, .cls-41, .cls-42, .cls-43, .cls-44, .cls-45, .cls-46, .cls-47, .cls-48, .cls-49, .cls-50, .cls-51, .cls-52, .cls-53, .cls-54, .cls-55, .cls-56 {
        fill-rule: evenodd;
        stroke-width: 0px;
      }

      .cls-3, .cls-4, .cls-5, .cls-6, .cls-8, .cls-9, .cls-10, .cls-11, .cls-12, .cls-13, .cls-14, .cls-15, .cls-16, .cls-17, .cls-18, .cls-19, .cls-20, .cls-21, .cls-22, .cls-23, .cls-24, .cls-25, .cls-26, .cls-27, .cls-28, .cls-29, .cls-30, .cls-31, .cls-32, .cls-33, .cls-34, .cls-35, .cls-36, .cls-37, .cls-38, .cls-39, .cls-41, .cls-42, .cls-43, .cls-44, .cls-45, .cls-46, .cls-47, .cls-48, .cls-49, .cls-50, .cls-51, .cls-52, .cls-53, .cls-54, .cls-55, .cls-56 {
        fill: #2e3192;
      }

      .cls-4 {
        filter: url(#outer-glow-50);
      }

      .cls-5 {
        filter: url(#outer-glow-41);
      }

      .cls-6 {
        filter: url(#outer-glow-12);
      }

      .cls-7 {
        filter: url(#outer-glow-1);
      }

      .cls-7, .cls-2, .cls-40 {
        fill: #d1d3d4;
      }

      .cls-8 {
        filter: url(#outer-glow-13);
      }

      .cls-9 {
        filter: url(#outer-glow-7);
      }

      .cls-10 {
        filter: url(#outer-glow-26);
      }

      .cls-11 {
        filter: url(#outer-glow-4);
      }

      .cls-12 {
        filter: url(#outer-glow-43);
      }

      .cls-13 {
        filter: url(#outer-glow-5);
      }

      .cls-14 {
        filter: url(#outer-glow-15);
      }

      .cls-15 {
        filter: url(#outer-glow-22);
      }

      .cls-16 {
        filter: url(#outer-glow-46);
      }

      .cls-17 {
        filter: url(#outer-glow-10);
      }

      .cls-18 {
        filter: url(#outer-glow-27);
      }

      .cls-19 {
        filter: url(#outer-glow-49);
      }

      .cls-20 {
        filter: url(#outer-glow-29);
      }

      .cls-21 {
        filter: url(#outer-glow-3);
      }

      .cls-22 {
        filter: url(#outer-glow-47);
      }

      .cls-23 {
        filter: url(#outer-glow-8);
      }

      .cls-24 {
        filter: url(#outer-glow-51);
      }

      .cls-25 {
        filter: url(#outer-glow-37);
      }

      .cls-26 {
        filter: url(#outer-glow-11);
      }

      .cls-27 {
        filter: url(#outer-glow-30);
      }

      .cls-28 {
        filter: url(#outer-glow-52);
      }

      .cls-29 {
        filter: url(#outer-glow-36);
      }

      .cls-30 {
        filter: url(#outer-glow-39);
      }

      .cls-31 {
        filter: url(#outer-glow-45);
      }

      .cls-32 {
        filter: url(#outer-glow-44);
      }

      .cls-33 {
        filter: url(#outer-glow-20);
      }

      .cls-2 {
        font-family: CopperplateGothic-Bold, 'Copperplate Gothic Bold';
        font-size: 60px;
        font-weight: 700;
      }

      .cls-34 {
        filter: url(#outer-glow-19);
      }

      .cls-35 {
        filter: url(#outer-glow-28);
      }

      .cls-36 {
        filter: url(#outer-glow-31);
      }

      .cls-37 {
        filter: url(#outer-glow-21);
      }

      .cls-38 {
        filter: url(#outer-glow-24);
      }

      .cls-39 {
        filter: url(#outer-glow-6);
      }

      .cls-40 {
        filter: url(#outer-glow-2);
      }

      .cls-41 {
        filter: url(#outer-glow-34);
      }

      .cls-42 {
        filter: url(#outer-glow-9);
      }

      .cls-43 {
        filter: url(#outer-glow-42);
      }

      .cls-44 {
        filter: url(#outer-glow-48);
      }

      .cls-45 {
        filter: url(#outer-glow-18);
      }

      .cls-46 {
        filter: url(#outer-glow-25);
      }

      .cls-47 {
        filter: url(#outer-glow-14);
      }

      .cls-48 {
        filter: url(#outer-glow-23);
      }

      .cls-49 {
        filter: url(#outer-glow-54);
      }

      .cls-50 {
        filter: url(#outer-glow-35);
      }

      .cls-51 {
        filter: url(#outer-glow-16);
      }

      .cls-52 {
        filter: url(#outer-glow-33);
      }

      .cls-53 {
        filter: url(#outer-glow-38);
      }

      .cls-54 {
        filter: url(#outer-glow-53);
      }

      .cls-55 {
        filter: url(#outer-glow-40);
      }

      .cls-56 {
        filter: url(#outer-glow-17);
      }
    </style>
    <filter id="outer-glow-1" filterUnits="userSpaceOnUse">
      <feOffset dx="0" dy="0"/>
      <feGaussianBlur result="blur" stdDeviation="4"/>
      <feFlood flood-color="#0e0884" flood-opacity=".8"/>
      <feComposite in2="blur" operator="in"/>
      <feComposite in="SourceGraphic"/>
    </filter>
    <filter id="outer-glow-2" filterUnits="userSpaceOnUse">
      <feOffset dx="0" dy="0"/>
      <feGaussianBlur result="blur-2" stdDeviation="4"/>
      <feFlood flood-color="#0e0884" flood-opacity=".8"/>
      <feComposite in2="blur-2" operator="in"/>
      <feComposite in="SourceGraphic"/>
    </filter>
    <filter id="outer-glow-3" filterUnits="userSpaceOnUse">
      <feOffset dx="0" dy="0"/>
      <feGaussianBlur result="blur-3" stdDeviation="4"/>
      <feFlood flood-color="#0e0884" flood-opacity=".8"/>
      <feComposite in2="blur-3" operator="in"/>
      <feComposite in="SourceGraphic"/>
    </filter>
    <filter id="outer-glow-4" filterUnits="userSpaceOnUse">
      <feOffset dx="0" dy="0"/>
      <feGaussianBlur result="blur-4" stdDeviation="4"/>
      <feFlood flood-color="#0e0884" flood-opacity=".8"/>
      <feComposite in2="blur-4" operator="in"/>
      <feComposite in="SourceGraphic"/>
    </filter>
    <filter id="outer-glow-5" filterUnits="userSpaceOnUse">
      <feOffset dx="0" dy="0"/>
      <feGaussianBlur result="blur-5" stdDeviation="4"/>
      <feFlood flood-color="#0e0884" flood-opacity=".8"/>
      <feComposite in2="blur-5" operator="in"/>
      <feComposite in="SourceGraphic"/>
    </filter>
    <filter id="outer-glow-6" filterUnits="userSpaceOnUse">
      <feOffset dx="0" dy="0"/>
      <feGaussianBlur result="blur-6" stdDeviation="4"/>
      <feFlood flood-color="#0e0884" flood-opacity=".8"/>
      <feComposite in2="blur-6" operator="in"/>
      <feComposite in="SourceGraphic"/>
    </filter>
    <filter id="outer-glow-7" filterUnits="userSpaceOnUse">
      <feOffset dx="0" dy="0"/>
      <feGaussianBlur result="blur-7" stdDeviation="4"/>
      <feFlood flood-color="#0e0884" flood-opacity=".8"/>
      <feComposite in2="blur-7" operator="in"/>
      <feComposite in="SourceGraphic"/>
    </filter>
    <filter id="outer-glow-8" filterUnits="userSpaceOnUse">
      <feOffset dx="0" dy="0"/>
      <feGaussianBlur result="blur-8" stdDeviation="4"/>
      <feFlood flood-color="#0e0884" flood-opacity=".8"/>
      <feComposite in2="blur-8" operator="in"/>
      <feComposite in="SourceGraphic"/>
    </filter>
    <filter id="outer-glow-9" filterUnits="userSpaceOnUse">
      <feOffset dx="0" dy="0"/>
      <feGaussianBlur result="blur-9" stdDeviation="4"/>
      <feFlood flood-color="#0e0884" flood-opacity=".8"/>
      <feComposite in2="blur-9" operator="in"/>
      <feComposite in="SourceGraphic"/>
    </filter>
    <filter id="outer-glow-10" filterUnits="userSpaceOnUse">
      <feOffset dx="0" dy="0"/>
      <feGaussianBlur result="blur-10" stdDeviation="4"/>
      <feFlood flood-color="#0e0884" flood-opacity=".8"/>
      <feComposite in2="blur-10" operator="in"/>
      <feComposite in="SourceGraphic"/>
    </filter>
    <filter id="outer-glow-11" filterUnits="userSpaceOnUse">
      <feOffset dx="0" dy="0"/>
      <feGaussianBlur result="blur-11" stdDeviation="4"/>
      <feFlood flood-color="#0e0884" flood-opacity=".8"/>
      <feComposite in2="blur-11" operator="in"/>
      <feComposite in="SourceGraphic"/>
    </filter>
    <filter id="outer-glow-12" filterUnits="userSpaceOnUse">
      <feOffset dx="0" dy="0"/>
      <feGaussianBlur result="blur-12" stdDeviation="4"/>
      <feFlood flood-color="#0e0884" flood-opacity=".8"/>
      <feComposite in2="blur-12" operator="in"/>
      <feComposite in="SourceGraphic"/>
    </filter>
    <filter id="outer-glow-13" filterUnits="userSpaceOnUse">
      <feOffset dx="0" dy="0"/>
      <feGaussianBlur result="blur-13" stdDeviation="4"/>
      <feFlood flood-color="#0e0884" flood-opacity=".8"/>
      <feComposite in2="blur-13" operator="in"/>
      <feComposite in="SourceGraphic"/>
    </filter>
    <filter id="outer-glow-14" filterUnits="userSpaceOnUse">
      <feOffset dx="0" dy="0"/>
      <feGaussianBlur result="blur-14" stdDeviation="4"/>
      <feFlood flood-color="#0e0884" flood-opacity=".8"/>
      <feComposite in2="blur-14" operator="in"/>
      <feComposite in="SourceGraphic"/>
    </filter>
    <filter id="outer-glow-15" filterUnits="userSpaceOnUse">
      <feOffset dx="0" dy="0"/>
      <feGaussianBlur result="blur-15" stdDeviation="4"/>
      <feFlood flood-color="#0e0884" flood-opacity=".8"/>
      <feComposite in2="blur-15" operator="in"/>
      <feComposite in="SourceGraphic"/>
    </filter>
    <filter id="outer-glow-16" filterUnits="userSpaceOnUse">
      <feOffset dx="0" dy="0"/>
      <feGaussianBlur result="blur-16" stdDeviation="4"/>
      <feFlood flood-color="#0e0884" flood-opacity=".8"/>
      <feComposite in2="blur-16" operator="in"/>
      <feComposite in="SourceGraphic"/>
    </filter>
    <filter id="outer-glow-17" filterUnits="userSpaceOnUse">
      <feOffset dx="0" dy="0"/>
      <feGaussianBlur result="blur-17" stdDeviation="4"/>
      <feFlood flood-color="#0e0884" flood-opacity=".8"/>
      <feComposite in2="blur-17" operator="in"/>
      <feComposite in="SourceGraphic"/>
    </filter>
    <filter id="outer-glow-18" filterUnits="userSpaceOnUse">
      <feOffset dx="0" dy="0"/>
      <feGaussianBlur result="blur-18" stdDeviation="4"/>
      <feFlood flood-color="#0e0884" flood-opacity=".8"/>
      <feComposite in2="blur-18" operator="in"/>
      <feComposite in="SourceGraphic"/>
    </filter>
    <filter id="outer-glow-19" filterUnits="userSpaceOnUse">
      <feOffset dx="0" dy="0"/>
      <feGaussianBlur result="blur-19" stdDeviation="4"/>
      <feFlood flood-color="#0e0884" flood-opacity=".8"/>
      <feComposite in2="blur-19" operator="in"/>
      <feComposite in="SourceGraphic"/>
    </filter>
    <filter id="outer-glow-20" filterUnits="userSpaceOnUse">
      <feOffset dx="0" dy="0"/>
      <feGaussianBlur result="blur-20" stdDeviation="4"/>
      <feFlood flood-color="#0e0884" flood-opacity=".8"/>
      <feComposite in2="blur-20" operator="in"/>
      <feComposite in="SourceGraphic"/>
    </filter>
    <filter id="outer-glow-21" filterUnits="userSpaceOnUse">
      <feOffset dx="0" dy="0"/>
      <feGaussianBlur result="blur-21" stdDeviation="4"/>
      <feFlood flood-color="#0e0884" flood-opacity=".8"/>
      <feComposite in2="blur-21" operator="in"/>
      <feComposite in="SourceGraphic"/>
    </filter>
    <filter id="outer-glow-22" filterUnits="userSpaceOnUse">
      <feOffset dx="0" dy="0"/>
      <feGaussianBlur result="blur-22" stdDeviation="4"/>
      <feFlood flood-color="#0e0884" flood-opacity=".8"/>
      <feComposite in2="blur-22" operator="in"/>
      <feComposite in="SourceGraphic"/>
    </filter>
    <filter id="outer-glow-23" filterUnits="userSpaceOnUse">
      <feOffset dx="0" dy="0"/>
      <feGaussianBlur result="blur-23" stdDeviation="4"/>
      <feFlood flood-color="#0e0884" flood-opacity=".8"/>
      <feComposite in2="blur-23" operator="in"/>
      <feComposite in="SourceGraphic"/>
    </filter>
    <filter id="outer-glow-24" filterUnits="userSpaceOnUse">
      <feOffset dx="0" dy="0"/>
      <feGaussianBlur result="blur-24" stdDeviation="4"/>
      <feFlood flood-color="#0e0884" flood-opacity=".8"/>
      <feComposite in2="blur-24" operator="in"/>
      <feComposite in="SourceGraphic"/>
    </filter>
    <filter id="outer-glow-25" filterUnits="userSpaceOnUse">
      <feOffset dx="0" dy="0"/>
      <feGaussianBlur result="blur-25" stdDeviation="4"/>
      <feFlood flood-color="#0e0884" flood-opacity=".8"/>
      <feComposite in2="blur-25" operator="in"/>
      <feComposite in="SourceGraphic"/>
    </filter>
    <filter id="outer-glow-26" filterUnits="userSpaceOnUse">
      <feOffset dx="0" dy="0"/>
      <feGaussianBlur result="blur-26" stdDeviation="4"/>
      <feFlood flood-color="#0e0884" flood-opacity=".8"/>
      <feComposite in2="blur-26" operator="in"/>
      <feComposite in="SourceGraphic"/>
    </filter>
    <filter id="outer-glow-27" filterUnits="userSpaceOnUse">
      <feOffset dx="0" dy="0"/>
      <feGaussianBlur result="blur-27" stdDeviation="4"/>
      <feFlood flood-color="#0e0884" flood-opacity=".8"/>
      <feComposite in2="blur-27" operator="in"/>
      <feComposite in="SourceGraphic"/>
    </filter>
    <filter id="outer-glow-28" filterUnits="userSpaceOnUse">
      <feOffset dx="0" dy="0"/>
      <feGaussianBlur result="blur-28" stdDeviation="4"/>
      <feFlood flood-color="#0e0884" flood-opacity=".8"/>
      <feComposite in2="blur-28" operator="in"/>
      <feComposite in="SourceGraphic"/>
    </filter>
    <filter id="outer-glow-29" filterUnits="userSpaceOnUse">
      <feOffset dx="0" dy="0"/>
      <feGaussianBlur result="blur-29" stdDeviation="4"/>
      <feFlood flood-color="#0e0884" flood-opacity=".8"/>
      <feComposite in2="blur-29" operator="in"/>
      <feComposite in="SourceGraphic"/>
    </filter>
    <filter id="outer-glow-30" filterUnits="userSpaceOnUse">
      <feOffset dx="0" dy="0"/>
      <feGaussianBlur result="blur-30" stdDeviation="4"/>
      <feFlood flood-color="#0e0884" flood-opacity=".8"/>
      <feComposite in2="blur-30" operator="in"/>
      <feComposite in="SourceGraphic"/>
    </filter>
    <filter id="outer-glow-31" filterUnits="userSpaceOnUse">
      <feOffset dx="0" dy="0"/>
      <feGaussianBlur result="blur-31" stdDeviation="4"/>
      <feFlood flood-color="#0e0884" flood-opacity=".8"/>
      <feComposite in2="blur-31" operator="in"/>
      <feComposite in="SourceGraphic"/>
    </filter>
    <filter id="outer-glow-32" filterUnits="userSpaceOnUse">
      <feOffset dx="0" dy="0"/>
      <feGaussianBlur result="blur-32" stdDeviation="4"/>
      <feFlood flood-color="#0e0884" flood-opacity=".8"/>
      <feComposite in2="blur-32" operator="in"/>
      <feComposite in="SourceGraphic"/>
    </filter>
    <filter id="outer-glow-33" filterUnits="userSpaceOnUse">
      <feOffset dx="0" dy="0"/>
      <feGaussianBlur result="blur-33" stdDeviation="4"/>
      <feFlood flood-color="#0e0884" flood-opacity=".8"/>
      <feComposite in2="blur-33" operator="in"/>
      <feComposite in="SourceGraphic"/>
    </filter>
    <filter id="outer-glow-34" filterUnits="userSpaceOnUse">
      <feOffset dx="0" dy="0"/>
      <feGaussianBlur result="blur-34" stdDeviation="4"/>
      <feFlood flood-color="#0e0884" flood-opacity=".8"/>
      <feComposite in2="blur-34" operator="in"/>
      <feComposite in="SourceGraphic"/>
    </filter>
    <filter id="outer-glow-35" filterUnits="userSpaceOnUse">
      <feOffset dx="0" dy="0"/>
      <feGaussianBlur result="blur-35" stdDeviation="4"/>
      <feFlood flood-color="#0e0884" flood-opacity=".8"/>
      <feComposite in2="blur-35" operator="in"/>
      <feComposite in="SourceGraphic"/>
    </filter>
    <filter id="outer-glow-36" filterUnits="userSpaceOnUse">
      <feOffset dx="0" dy="0"/>
      <feGaussianBlur result="blur-36" stdDeviation="4"/>
      <feFlood flood-color="#0e0884" flood-opacity=".8"/>
      <feComposite in2="blur-36" operator="in"/>
      <feComposite in="SourceGraphic"/>
    </filter>
    <filter id="outer-glow-37" filterUnits="userSpaceOnUse">
      <feOffset dx="0" dy="0"/>
      <feGaussianBlur result="blur-37" stdDeviation="4"/>
      <feFlood flood-color="#0e0884" flood-opacity=".8"/>
      <feComposite in2="blur-37" operator="in"/>
      <feComposite in="SourceGraphic"/>
    </filter>
    <filter id="outer-glow-38" filterUnits="userSpaceOnUse">
      <feOffset dx="0" dy="0"/>
      <feGaussianBlur result="blur-38" stdDeviation="4"/>
      <feFlood flood-color="#0e0884" flood-opacity=".8"/>
      <feComposite in2="blur-38" operator="in"/>
      <feComposite in="SourceGraphic"/>
    </filter>
    <filter id="outer-glow-39" filterUnits="userSpaceOnUse">
      <feOffset dx="0" dy="0"/>
      <feGaussianBlur result="blur-39" stdDeviation="4"/>
      <feFlood flood-color="#0e0884" flood-opacity=".8"/>
      <feComposite in2="blur-39" operator="in"/>
      <feComposite in="SourceGraphic"/>
    </filter>
    <filter id="outer-glow-40" filterUnits="userSpaceOnUse">
      <feOffset dx="0" dy="0"/>
      <feGaussianBlur result="blur-40" stdDeviation="4"/>
      <feFlood flood-color="#0e0884" flood-opacity=".8"/>
      <feComposite in2="blur-40" operator="in"/>
      <feComposite in="SourceGraphic"/>
    </filter>
    <filter id="outer-glow-41" filterUnits="userSpaceOnUse">
      <feOffset dx="0" dy="0"/>
      <feGaussianBlur result="blur-41" stdDeviation="4"/>
      <feFlood flood-color="#0e0884" flood-opacity=".8"/>
      <feComposite in2="blur-41" operator="in"/>
      <feComposite in="SourceGraphic"/>
    </filter>
    <filter id="outer-glow-42" filterUnits="userSpaceOnUse">
      <feOffset dx="0" dy="0"/>
      <feGaussianBlur result="blur-42" stdDeviation="4"/>
      <feFlood flood-color="#0e0884" flood-opacity=".8"/>
      <feComposite in2="blur-42" operator="in"/>
      <feComposite in="SourceGraphic"/>
    </filter>
    <filter id="outer-glow-43" filterUnits="userSpaceOnUse">
      <feOffset dx="0" dy="0"/>
      <feGaussianBlur result="blur-43" stdDeviation="4"/>
      <feFlood flood-color="#0e0884" flood-opacity=".8"/>
      <feComposite in2="blur-43" operator="in"/>
      <feComposite in="SourceGraphic"/>
    </filter>
    <filter id="outer-glow-44" filterUnits="userSpaceOnUse">
      <feOffset dx="0" dy="0"/>
      <feGaussianBlur result="blur-44" stdDeviation="4"/>
      <feFlood flood-color="#0e0884" flood-opacity=".8"/>
      <feComposite in2="blur-44" operator="in"/>
      <feComposite in="SourceGraphic"/>
    </filter>
    <filter id="outer-glow-45" filterUnits="userSpaceOnUse">
      <feOffset dx="0" dy="0"/>
      <feGaussianBlur result="blur-45" stdDeviation="4"/>
      <feFlood flood-color="#0e0884" flood-opacity=".8"/>
      <feComposite in2="blur-45" operator="in"/>
      <feComposite in="SourceGraphic"/>
    </filter>
    <filter id="outer-glow-46" filterUnits="userSpaceOnUse">
      <feOffset dx="0" dy="0"/>
      <feGaussianBlur result="blur-46" stdDeviation="4"/>
      <feFlood flood-color="#0e0884" flood-opacity=".8"/>
      <feComposite in2="blur-46" operator="in"/>
      <feComposite in="SourceGraphic"/>
    </filter>
    <filter id="outer-glow-47" filterUnits="userSpaceOnUse">
      <feOffset dx="0" dy="0"/>
      <feGaussianBlur result="blur-47" stdDeviation="4"/>
      <feFlood flood-color="#0e0884" flood-opacity=".8"/>
      <feComposite in2="blur-47" operator="in"/>
      <feComposite in="SourceGraphic"/>
    </filter>
    <filter id="outer-glow-48" filterUnits="userSpaceOnUse">
      <feOffset dx="0" dy="0"/>
      <feGaussianBlur result="blur-48" stdDeviation="4"/>
      <feFlood flood-color="#0e0884" flood-opacity=".8"/>
      <feComposite in2="blur-48" operator="in"/>
      <feComposite in="SourceGraphic"/>
    </filter>
    <filter id="outer-glow-49" filterUnits="userSpaceOnUse">
      <feOffset dx="0" dy="0"/>
      <feGaussianBlur result="blur-49" stdDeviation="4"/>
      <feFlood flood-color="#0e0884" flood-opacity=".8"/>
      <feComposite in2="blur-49" operator="in"/>
      <feComposite in="SourceGraphic"/>
    </filter>
    <filter id="outer-glow-50" filterUnits="userSpaceOnUse">
      <feOffset dx="0" dy="0"/>
      <feGaussianBlur result="blur-50" stdDeviation="4"/>
      <feFlood flood-color="#0e0884" flood-opacity=".8"/>
      <feComposite in2="blur-50" operator="in"/>
      <feComposite in="SourceGraphic"/>
    </filter>
    <filter id="outer-glow-51" filterUnits="userSpaceOnUse">
      <feOffset dx="0" dy="0"/>
      <feGaussianBlur result="blur-51" stdDeviation="4"/>
      <feFlood flood-color="#0e0884" flood-opacity=".8"/>
      <feComposite in2="blur-51" operator="in"/>
      <feComposite in="SourceGraphic"/>
    </filter>
    <filter id="outer-glow-52" filterUnits="userSpaceOnUse">
      <feOffset dx="0" dy="0"/>
      <feGaussianBlur result="blur-52" stdDeviation="4"/>
      <feFlood flood-color="#0e0884" flood-opacity=".8"/>
      <feComposite in2="blur-52" operator="in"/>
      <feComposite in="SourceGraphic"/>
    </filter>
    <filter id="outer-glow-53" filterUnits="userSpaceOnUse">
      <feOffset dx="0" dy="0"/>
      <feGaussianBlur result="blur-53" stdDeviation="4"/>
      <feFlood flood-color="#0e0884" flood-opacity=".8"/>
      <feComposite in2="blur-53" operator="in"/>
      <feComposite in="SourceGraphic"/>
    </filter>
    <filter id="outer-glow-54" filterUnits="userSpaceOnUse">
      <feOffset dx="0" dy="0"/>
      <feGaussianBlur result="blur-54" stdDeviation="4"/>
      <feFlood flood-color="#0e0884" flood-opacity=".8"/>
      <feComposite in2="blur-54" operator="in"/>
      <feComposite in="SourceGraphic"/>
    </filter>
    <filter id="outer-glow-55" filterUnits="userSpaceOnUse">
      <feOffset dx="0" dy="0"/>
      <feGaussianBlur result="blur-55" stdDeviation="4"/>
      <feFlood flood-color="#0e0884" flood-opacity=".8"/>
      <feComposite in2="blur-55" operator="in"/>
      <feComposite in="SourceGraphic"/>
    </filter>
  </defs>
  <g>
    <path class="cls-7" d="M154.1,375c-4,1.1-8.6,1.7-13.2,1.7h-2.9c-1.2.6-1.7.6-5.8,0-4.6-.6-9.2-.6-14.4,0-9.8,0-18.4,2.3-28.2,2.3s-9.2-5.2-15-2.3c-2.3,1.1-7.5.6-11.5,1.7l-2.9.6c-4.6,1.7-12.1,0-20.7-1.7-12.1-1.2-20.7,7.5-22.4,8.6,16.1-5.2,17.8-2.3,21.9-1.7,9.8,1.2,17.2,2.9,22.4,1.7l1.7-.6c-1.7,1.7-2.9,3.4-4,5.2-3.5,5.8-6.3,11.5-11.5,15.5,8.6-2.3,12.1-6.3,15.5-11.5,1.7-2.3,3.4-4.6,6.3-6.9,9.2-6.9,14.4-2.3,20.2-1.7,9.8,0,18.4-2.3,28.2-2.9,5.2,0,9.8,0,14.4.6,4.6.6,5.8,0,6.9,0,0-.6.6-.6,1.7-.6,16.1.6,22.4-8.1,28.7-2.9-20.7,13.8-27.6,12.1-44.3,13.8h-3.5c-12.7.6-20.1,5.7-28.2,11.5-3.5,2.9-6.9,5.2-11.5,8.1-2.9,1.7-5.8,2.9-8.6,3.4-3.5.6-6.9,1.2-9.8,1.7-9.2.6-14.9,5.2-20.7,9.8-2.9,2.3-5.8,4.6-9.8,6.3,19.5-5.2,20.1-10.3,31.6-10.3,3.4-.6,5.7,0,9.2-1.2,4-.6,7.5-1.7,10.9-4,4-2.3,8.1-5.2,11.5-8.1,6.9-4.6,10.9-7.5,20.7-8.6-.6,2.9-.6,4-1.7,6.9-2.9,5.7-5.7,10.3-8.6,13.2-3.4,4-6.9,5.7-9.8,7.5-2.3,1.2-4.6,2.3-7.5,4.6-2.9,1.7-10.9,9.2-15,21.3,5.2-8.6,21.3-18.4,24.2-20.1,4-1.7,7.5-3.5,11.5-8,3.5-3.4,6.9-9.2,9.8-15,1.7-4,3.5-8.6,4-12.7h1.2c28.7,2.9,47.7-19.5,36.2,1.2-2.9,5.2-5.2,12.1-8.6,17.2-6.3,2.9-11.5,4-18.4,6.3-2.9.6-12.7,8.1-13.8,10.9,8.6-8,18.4-8,27-10.4l-5.2,6.3c-6.3,8.6-12.7,13.2-20.7,21.3-3.5,2.9-12.1,19-12.1,23.6,8.6-20.1,25.9-25.9,36.8-40.3l7.5-8.6c4.6-6.3,8-15.5,12.1-22.4,8-10.4,12.6-17.8,23.6-23.6,6.9-3.5,8.6,0-1.2,17.2-6.3,8.6-12.6,20.1-14.4,24.1-1.7,6.3-7.5,13.8-13.2,21.9l-1.7,2.3h0c-7.5,2.3-16.1,6.3-21.3,13.8l1.1-1.1c1.7-1.2,4-2.3,5.7-2.9,1.2-.6,1.7-.6,2.9-1.2,1.2-1.1,4.6-2.3,8-2.9-4.6,6.3-9.2,16.1-13.8,32.2l5.8-8.6c1.7-2.3,2.9-4.6,3.4-5.8,2.9-6.3,8.6-14.4,13.8-21.3,6.3-8.6,12.1-16.7,14.4-23.6,1.2-4,7.5-14.4,13.2-23,17.2-20.1,13.2.6,9.2,12.1-2.3,8.1-7.5,13.8-12.1,19.5-7.5,8.6-14.9,17.2-16.7,33.9l-.6,4c-1.2,6.3-4.6,16.7-6.9,21.3,10.9-10.4,10.4-17.2,11.5-26.5,1.7-13.8,9.8-20.1,16.1-28.2l2.9-2.9c.6,6.9-1.2,13.2-2.9,20.7-1.1,5.2-2.3,16.1-2.9,22.4-1.1,8.6,5.8,29.9,2.9,37.4,3.5-4,2.3-19.6,1.7-24.7v-2.9c0-9.8,1.7-23.6,3.5-30.5,2.3-9.2,4.6-17.8,2.3-28.8,2.3-3.4,4.6-7.5,6.3-12.1,4-12.7,9.2-15.5,12.1-14.4l-.6,2.9c-1.7,12.1-3.5,20.7-.6,36.2,0,2.9,1.2,6.9,2.3,12.1,2.3,8.6,4.6,19,4.6,23.6s.6,3.5.6,5.8c.6,3.5,1.1,7.5,1.1,12.1v2.3c4.6-13.8,2.3-32.2-1.1-46-1.2-4-1.7-8.6-2.3-11.5-2.9-15.5,0-62.1,12.7-23,1.1,4.6,3.5,8.6,5.8,12.1-2.3,10.9,0,19.5,2.3,28.8,1.7,6.9,3.4,15,3.4,24.7v2.9c0,5.2,0,11.5,2.9,15-2.3-6.9,2.9-19,2.3-27.6-1.2-6.3-2.3-11.5-3.4-16.7-1.7-7.5-3.5-13.8-2.9-20.7l2.9,2.9c6.3,8.1,14.4,14.4,16.1,28.2,1.2,9.2.6,16.1,11.5,26.5-1.7-4.6-5.7-15-6.3-21.3l-.6-4c-2.3-16.7-9.8-25.3-17.2-33.9-4.6-5.7-9.2-11.5-12.1-19.5-4-11.5-8.1-32.2,9.2-12.1,5.8,8.6,12.1,19,13.8,23,2.3,6.9,8,15,13.8,23.6,5.8,6.9,10.9,15,13.8,21.3.6,1.2,2.3,3.5,4,5.8l5.8,8.6c-5.2-16.1-9.8-25.9-13.8-32.2,2.9.6,6.3,1.7,8.1,2.9.6.6,1.7.6,2.9,1.2,1.7.6,3.5,1.7,5.8,2.9l1.1,1.1c-5.2-7.5-14.4-11.5-21.3-13.8h-.6l-1.7-2.3c-5.7-8.1-10.9-15.5-13.2-21.9-1.7-4-8-15.5-14.4-24.1-9.2-17.2-7.5-20.7-1.2-17.2,11.5,5.8,15.5,13.2,24.1,23.6,3.5,6.9,6.9,16.1,12.1,22.4l7.5,8.6c10.9,14.4,27.6,20.1,36.8,40.3-.6-4.6-8.6-20.7-12.1-23.6-8.6-8-15-12.6-21.3-21.3l-5.2-6.3c8.6,2.3,18.4,2.3,27,10.4-1.1-2.9-10.3-10.4-13.2-10.9-7.5-2.3-12.6-3.5-19-6.3-2.9-5.2-5.8-12.1-8.6-17.2-11.5-20.7,7.5,1.7,36.2-1.2h1.7c.6,4,1.7,8.6,4,12.7,2.3,5.8,6.3,11.5,9.2,15,4.6,4.6,8.1,6.3,11.5,8,3.5,1.7,19,11.5,24.2,20.1-3.5-12.1-12.1-19.5-15-21.3-2.3-2.3-4.6-3.4-6.9-4.6-3.5-1.7-6.3-3.4-10.4-7.5-2.3-2.9-5.8-7.5-8-13.2-1.7-2.9-1.2-4-1.7-6.9,9.2,1.1,13.8,4,20.7,8.6,3.4,2.9,6.9,5.8,11.5,8.1,3.5,2.3,6.9,3.5,10.4,4,3.4,1.2,5.8.6,9.2,1.2,12.1,0,12.1,5.2,31.6,10.3-3.4-1.7-6.9-4-9.8-6.3-5.8-4.6-10.9-9.2-20.1-9.8-3.5-.6-6.9-1.2-9.8-1.7-3.5-.6-6.3-1.7-9.2-3.4-4-2.9-8-5.2-10.9-8.1-8.6-5.8-15.5-10.9-28.2-11.5h-4c-16.7-1.7-23.6,0-43.7-13.8,5.8-5.2,12.7,3.5,28.2,2.9,1.2,0,1.7,0,2.3.6,1.1,0,2.3.6,6.9,0,4-.6,9.2-.6,13.8-.6,5.8.6,11.5-.6,16.7,0,13.2,1.1,17.2-7.5,32.2,3.4,2.3,2.3,4.6,5.2,6.3,7.5,3.5,4.6,6.3,9.2,15,10.9-5.2-3.5-8-9.8-10.9-15.5-1.7-1.7-2.9-3.4-4.6-5.2l1.7.6c5.2,1.7,12.7-.6,22.4-1.7,4-.6,5.7-3.5,21.9,1.1-1.7-.6-10.4-9.8-22.4-8-8.6,1.2-15.5,3.5-20.1,2.3l-2.9-1.1c-16.1-4.6-39.7,0-54.6-.6-13.2-1.2-24.1-2.3-32.2-3.5-25.9-4.6-48.3-2.9-75.3-2.9s-39.1-2.3-63.3,4.6h0Z"/>
    <path class="cls-40" d="M197.2,150.7c.6-12.6,2.3-29.3,0-35.7l-4.1-12.6c-5.7-20.1-19-27.6-20.7-53.5-1.2,5.2,1.2,26.5,3.5,31,5.8,12.1,7.5,13.8,11.5,25.9l2.9,9.2c-8.6-6.3-19.5-10.3-25.3-22.4,0,3.4,6.9,15.5,9.8,17.8,7.5,5.2,10.4,9.8,16.1,15.5,1.1,6.9-.6,32.2,0,38.5,4,27.6-7.5-5.2-39.7-13.8l-1.7-.6c1.2-4.6,1.2-9.8.6-15.5,0-7.5-1.7-15.5-4-20.1-2.9-6.9-2.3-12.7-5.2-16.1-2.9-3.5-16.1-20.1-18.4-32.2-1.2,15.5,5.2,26.5,7.5,29.9,1.7,3.4,4,5.7,5.7,8,2.9,3.5,2.3,8.6,4.6,14.4,1.7,4,2.9,10.9,3.5,17.8.6,4-.6,5.2-1.1,8.6-18.4-9.8-17.2-23-28.2-31-3.5-2.3-6.3-2.9-10.4-4.6-12.7-5.2-4.6-1.7-23.6-15.5,2.9,3.4,5.2,7.5,7.5,10.9,4.6,7.5,2.9,5.2,12.1,10.3,3.5,1.7,6.9,3.5,10.3,5.8,11.5,8.1,10.4,25.3,34,35.7l4,1.7c17.2,8.6,25.9,9.8,42,33.4-8.6,2.9-12.1-9.2-29.9-15.5-1.1-.6-1.7-.6-1.7-1.1-1.2-.6-2.3-1.7-7.5-2.9-6.3-1.7-54-2.3-60.9-14.4-2.3-3.5-2.9-6.9-4-10.4-1.7-6.3-3.5-12.7-12.1-18.4,4,6.3,5.2,14.4,5.8,21.9.6,2.3,1.7,4.6,2.3,7.5l-1.7-1.1c-4.6-4-8-6.9-19.5-9.8-4.6-1.1-7.5,1.2-23-10.9,1.1,1.7,7.5,15.5,20.7,18.4,10.3,2.9,13.2,5.2,17.8,8.6l2.9,2.3c4.1,2.9,9.8,4,12.1,6.3,5.2,5.7,55.2,6.9,57.5,7.5,4,1.1,4.6,1.7,5.7,2.3.6.6,1.1,1.2,3.5,1.7,8.1,2.9,14.9,7.5,20.7,13.2,8.1,8.6,19,5.8,21.9,15-34.5-12.1-55.8-5.8-92,2.9l-1.7.6c-4.6-9.2-16.7-21.3-25.9-25.9-6.3-4-10.9-4.6-16.1-5.7-4-.6-25.9-5.8-34.5-13.8,8.6,12.7,20.7,17.8,24.7,19,3.4,1.7,6.9,2.3,9.8,2.9,4.6.6,8.6,1.1,14.4,4.6,4.1,2.3,9.2,6.9,14.4,12.1,2.3,2.9,2.9,4.6,4.6,7.5-21.3,4-19.5-5.2-39.1-4-4,.6-6.9,1.7-10.9,2.9-13.2,4-15.5-1.7-40.2-.6,5.2.6,9.2,2.3,13.8,4,8,2.9,16.1,5.7,27,3.4,30.5-6.3,31,9.8,57.5,2.3l4.6-1.1c40.2-8.6,106.4-5.2,97.2,46-2.3,12.7-8.6,16.1-21.9,14.4-1.2,0-2.3,0-6.9,1.1-4,1.2-9.2,1.7-13.8,2.3h-29.9c-4.6,0-28.2.6-31.1,1.2-20.7,1.7-40.8-2.3-62.1-.6-4,1.2-10.4,3.5-27,1.2,1.2,0,11.5,8,23,5.2,8.6-2.9,14.4-.6,19.5,0l7.5.6c4,0,22.4-1.2,25.3,0,5.7,2.3,9.8,1.7,14.4.6,2.9,0,26.4-.6,30.5-.6,5.8,0,24.2,0,30.5-.6,14.9-1.1,92-1.1,109.3.6,6.3.6,25.3.6,30.5,0,4,0,27.6.6,30.5,1.1,4.6.6,22.4,1.2,28.2-1.1,2.9-.6,7.5.6,12.1,0l2.9-.6c4.6-.6,10.9-2.9,19.5,0,11.5,2.9,21.9-5.2,23-5.2-16.7,2.3-23,0-27-1.2-21.3-1.7-36.8,2.3-57.5.6-2.9-.6-26.5-1.2-31-1.2s-19.6-1.1-25.3-1.7c-20.1-1.7-29.3-5.7-30.5-12.6-5.2-31.1-23-40.3,28.2-54.6,1.7.6,2.3,0,3.4,0s2.3,0,7.5,1.2c6.3,1.1,13.8,2.3,21.3,2.9,8.6.6,43.1,2.9,53.5,1.2,15-2.3,25.9-2.9,40.3-1.7,14.9,1.2,27-8.6,28.7-9.2-24.1,4-27.6,2.9-33.4,1.7-7.5-2.3-7.5-2.9-15.5-1.7,2.9-2.3,17.8-14.4,19.5-16.7,5.8-8.1,10.9-16.7,19-20.7-12.7,1.1-17.8,6.9-23.6,13.2-3.5,3.4-19,16.7-23.6,19.6-16.7,9.8-43.7,5.7-63.8,4.6-7.5-.6-14.4-1.2-20.7-2.9-21.3-4.6-23.6-1.7-44.3,1.7,10.3-21.9,50.6-27.6,74.2-29.3,10.4-1.2,20.1,0,30.5-1.7,15.5-3.4,12.1-6.3,34.5,0-17.2-14.4-36.2-5.8-46-5.8s-4,.6-6.9.6h-.6c5.2-3.5,9.8-6.9,14.9-11.5,4-3.4,1.2-1.7,6.3-5.2,3.5-2.3,7.5-4,11.5-5.2,3.5-1.7,8.1-2.3,12.1-2.9,11.5-2.3,9.2-.6,16.1-6.9,3.5-3.5,6.9-6.3,11.5-9.2-24.1,8.6-15.5,7.5-29.9,8.6-4.6.6-7.5.6-12.1,1.7-4,1.7-8.6,3.4-12.6,6.3-5.2,3.5-2.9,2.3-6.9,5.8-8.6,6.9-13.8,10.9-25.3,13.2.6-3.4,0-5.2,1.1-9.2,9.8-24.7,10.9-17.2,25.9-30.5,3.4-2.9,16.1-12.7,19.5-28.8-13.2,26.4-37.9,20.1-51.2,55.2-2.3,5.8-4,11.5-4,16.1l-2.3.6c-25.9-1.2-55.8,23-45.4,1.1,3.5-6.3,17.2-27,20.7-33.9,7.5-4.6,13.8-6.3,23-9.2,3.5-1.7,14.4-11.5,15.5-15.5-9.8,10.9-21.9,12.1-32.8,15.5l5.8-8.6c7.5-10.9,15-17.8,24.7-28.2,4-4.6,13.8-25.3,13.2-31.1-9.8,25.9-30.5,35.1-43.1,53.5l-8.6,12.1c-5.2,8.1-20.1,32.2-24.1,41.4-7.5,10.4-12.1,19-20.7,25.9,0-2.9,0-5.7.6-8.6,0-12.6,4.6-23.6,9.2-33.9,4-9.8,8.6-20.1,10.3-32.2l.6-1.2c8.1-15.5,3.5-15.5,23.6-22.4,5.7-1.7,10.9-3.4,15.5-11.5-5.2,4-12.1,5.2-19,6.3-1.7.6-4,1.1-6.3,2.3l1.1-1.7c2.9-4,6.9-9.8,8.6-20.1,1.1-4-1.2-6.3,8.6-21.3-1.1,1.7-13.2,7.5-14.9,19.6-1.7,9.2-5.8,14.4-8.6,19l-1.7,2.3c-2.3,3.4-2.9,9.2-5.2,10.9-2.3,2.9-4.1,5.2-5.2,7.5,0-1.7-.6-4-.6-5.7l-1.2-6.9c-1.7-9.8-.6-27,.6-35.1-12.1,21.3-8.1,31.1-5.8,44.9,4,21.8-1.7,24.7-8,39.7l-2.9,5.8c-4-10.4-4.6-20.7-5.2-32.2-.6-8.1-3.5-25.9-5.2-35.6-2.9-12.7-20.1-32.8-19-44.9-3.4,7.5,5.8,29.9,8.1,37.4l1.1,4c4.6,15,5.8,27.6,6.3,38.5,1.2,15,1.7,28.8,9.8,44.3-1.7,6.3-3.5,13.2-3.5,20.7-3.4,43.1-31.6-13.2-30.5-34.5h0Z"/>
    <path class="cls-21" d="M108.6,81.1c5.2,2.3,7.5,3.4,7.5,3.4-6.9,7.5-15.5,4.6-24.7-8,9.8,2.3,19-8.6,24.7,5.2-5.2-.6-7.5-.6-7.5-.6h0Z"/>
    <path class="cls-11" d="M439.3,209.3c-5.8,4-9.2,6.3-9.2,6.3,10.9,8.6,21.8,3.4,32.2-15.5-13.2,4.6-27.6-8.6-32.8,11.5,6.9-1.7,9.8-2.3,9.8-2.3h0Z"/>
    <path class="cls-13" d="M69.5,121.9c6.3,6.9,9.8,9.8,9.8,9.8,8.6-16.1-.6-28.2-28.2-36.8,9.8,16.1-3.4,38,23.6,38.5-3.4-7.5-5.2-11.5-5.2-11.5h0Z"/>
    <path class="cls-39" d="M334,55.8c-.6,8.1-.6,12.1-.6,12.1,15.5-4,17.8-17.2,6.3-39.7-4,15.5-25.9,20.1-10.4,38,2.9-6.9,4.6-10.3,4.6-10.3h0Z"/>
    <path class="cls-9" d="M393.3,107c-4,6.3-5.7,9.2-5.7,9.2,13.8,3.4,21.3-5.8,22.4-27.6-9.8,10.3-28.8,4.6-24.7,24.7,5.2-4,8-6.3,8-6.3h0Z"/>
    <path class="cls-23" d="M140.8,196.1c4,5.2,6.3,7.5,6.3,7.5-11.5,4.6-19-2.9-22.4-21.9,9.8,8.1,25.3,1.2,23.6,19-4.6-2.9-7.5-4.6-7.5-4.6h0Z"/>
    <path class="cls-42" d="M391.5,163.3c-5.7,3.4-9.2,5.2-9.2,5.2,9.8,9.8,20.7,5.2,32.2-12.7-13.2,4-26.5-10.4-32.2,9.2,6.3-1.1,9.2-1.7,9.2-1.7h0Z"/>
    <path class="cls-17" d="M286.3,155.3c-4.6,2.3-7.5,4-7.5,4,8,8,17.2,4,26.5-10.4-10.9,2.9-21.9-8.6-26.5,7.5,5.2-1.1,7.5-1.1,7.5-1.1h0Z"/>
    <path class="cls-26" d="M120.7,58.1v15.5c-19-5.7-21.3-22.4-6.9-50,4.6,19.5,32.2,26.5,12.1,47.7-3.4-8.6-5.2-13.2-5.2-13.2h0Z"/>
    <path class="cls-6" d="M292.1,47.7c-6.9,5.2-10.3,7.5-10.3,7.5-4.6-15.5,5.1-24.1,29.9-27-10.9,11.5-2.9,32.8-25.9,28.8,4-5.8,6.3-9.2,6.3-9.2h0Z"/>
    <path class="cls-8" d="M327.1,110.4c-5.2,6.9-7.5,9.8-7.5,9.8,15.5,5.2,24.2-4.6,27.6-29.3-12.1,10.9-32.8,2.9-29.3,25.9,5.8-4,9.2-6.3,9.2-6.3h0Z"/>
    <path class="cls-47" d="M300.1,81.1c-4.6,6.3-6.9,9.2-6.9,9.2,13.8,5.2,22.4-3.5,25.9-25.9-10.9,9.2-29.9,1.2-27.6,22.4,5.8-3.4,8.6-5.7,8.6-5.7h0Z"/>
    <path class="cls-14" d="M167.9,140.3c-2.9,6.3-4,9.2-4,9.2-10.3-8-7.5-19,8.6-32.2-2.3,13.2,12.7,24.2-5.2,32.2,0-6.3.6-9.2.6-9.2h0Z"/>
    <path class="cls-51" d="M429.5,172c-9.2,1.7-13.8,2.3-13.8,2.3,1.7-17.8,16.7-23,43.7-14.4-16.7,7.5-18.4,33.4-41.4,18.4,7.5-4.6,11.5-6.3,11.5-6.3h0Z"/>
    <path class="cls-56" d="M161.5,85.1c2.3,9.2,3.5,13.8,3.5,13.8-17.8-1.2-23.6-15.5-17.2-43.1,8.6,16.7,34.5,16.1,21.3,39.7-5.2-6.9-7.5-10.3-7.5-10.3h0Z"/>
    <path class="cls-45" d="M408.2,131.7c-7.5,5.8-10.9,9.2-10.9,9.2,15.5,9.2,28.1.6,37.9-25.9-16.1,8.6-36.8-5.2-39.1,21.3,8.1-3.4,12.1-4.6,12.1-4.6h0Z"/>
    <path class="cls-34" d="M256.4,54.1c-5.8,8.6-9.2,13.2-9.2,13.2-13.2-16.1-5.2-32.2,24.1-47.7-7.5,20.1,12.1,42.6-18.4,48.9,2.3-9.8,3.5-14.4,3.5-14.4h0Z"/>
    <path class="cls-33" d="M368,93.8c-1.7,8.6-2.9,13.2-2.9,13.2,17.8-1.2,23-15.5,15.5-42-8,16.1-32.8,16.7-19,39.1,4-6.9,6.3-10.3,6.3-10.3h0Z"/>
    <path class="cls-37" d="M205.8,33.4c-2.3,9.8-3.4,14.4-3.4,14.4-16.1-9.8-14.4-25.9,5.2-47.7,0,19,23.6,31.6,0,46.6-1.1-8.6-1.7-13.2-1.7-13.2h0Z"/>
    <path class="cls-15" d="M172.5,42.6c-1.7,9.8-2.9,15-2.9,15-17.2-9.8-16.1-26.5,4-50.6,0,20.1,25.3,32.8,1.1,49.4-1.1-9.2-2.3-13.8-2.3-13.8h0Z"/>
    <path class="cls-48" d="M32.7,131.1c5.2,8,7.5,12.1,7.5,12.1-17.2,4-27-7.5-28.2-35.1,12.1,12.7,36.2,5.2,30.5,31.1-6.3-5.2-9.8-8-9.8-8h0Z"/>
    <path class="cls-38" d="M75.3,86.8c4.6,8.1,6.9,12.1,6.9,12.1-17.8,3.5-26.5-8.6-26.5-36.8,11.5,13.8,35.7,7.5,29.3,32.8-6.3-5.8-9.8-8.1-9.8-8.1h0Z"/>
    <path class="cls-46" d="M24.7,162.8c4.6,7.5,6.9,11.5,6.9,11.5-17.2,4.6-26.5-7.5-28.2-35.1,12.7,13.2,36.2,5.8,31,31.1-6.3-5.2-9.8-7.5-9.8-7.5h0Z"/>
    <path class="cls-10" d="M358.8,132.3c-5.2,2.9-8,4.6-8,4.6,8.6,7.5,17.2,4,27-10.9-10.9,3.4-21.9-8-27,8.1,5.2-1.1,8-1.7,8-1.7h0Z"/>
    <path class="cls-18" d="M302.4,192.6c-5.8-1.7-8.6-2.9-8.6-2.9,0,11.5,8.6,16.1,25.9,12.7-9.8-5.8-8.6-21.9-23.6-14.4,4,2.9,6.3,4.6,6.3,4.6h0Z"/>
    <path class="cls-35" d="M349,200.7c-3.4,6.3-4.6,9.8-4.6,9.8,13.8,1.7,20.1-8,19-30.5-8.6,11.5-28.2,8.1-21.9,27.6,5.2-4.6,7.5-6.9,7.5-6.9h0Z"/>
    <path class="cls-20" d="M412.3,198.4c-4.6,1.1-7.5,1.7-7.5,1.7,5.2,8.6,13.8,7.5,25.3-2.9-10.4.6-16.7-12.1-24.7.6,4.6.6,6.9.6,6.9.6h0Z"/>
    <path class="cls-27" d="M65.5,166.2c5.8,1.1,8.6,1.7,8.6,1.7-5.8,9.8-15,9.2-28.2-2.3,10.9,0,18.4-14.4,27.6-.6-5.2.6-8.1,1.2-8.1,1.2h0Z"/>
    <path class="cls-36" d="M83.3,174.3c3.4-1.7,5.2-2.9,5.2-2.9,1.7,7.5-2.9,10.9-14.4,12.1,5.2-5.2,2.3-15.5,12.7-13.2-2.3,2.9-3.4,4-3.4,4h0Z"/>
    <path class="cls-3" d="M236.8,70.8c4.1,3.4,5.8,5.2,5.8,5.2-8.6,5.2-16.1,0-21.3-15,9.2,5.2,21.3-2.3,21.9,12.6-4-1.7-6.3-2.9-6.3-2.9h0Z"/>
    <path class="cls-52" d="M162.1,107.6h5.8c-1.7,6.9-8,8.1-18.4,3.4,7.5-2.3,9.2-12.1,17.8-5.2-3.5,1.2-5.2,1.7-5.2,1.7h0Z"/>
    <path class="cls-41" d="M105.7,132.3c5.8,0,8.1-.6,8.1-.6-2.3,10.9-11.5,12.1-26.4,5.2,10.3-2.9,13.2-17.8,25.3-7.5-4.6,1.7-6.9,2.9-6.9,2.9h0Z"/>
    <path class="cls-50" d="M115.5,144.4c2.9-2.9,4-4,4-4,3.4,6.3,0,11.5-11.5,14.9,4-6.3-1.7-15.5,9.8-15.5-1.7,2.9-2.3,4.6-2.3,4.6h0Z"/>
    <path class="cls-29" d="M29.9,192.6c8.1,1.7,12.1,2.3,12.1,2.3-7.5,13.8-20.7,13.2-39.7-2.3,16.1-.6,25.3-20.7,39.1-1.7-7.5,1.2-11.5,1.7-11.5,1.7h0Z"/>
    <path class="cls-25" d="M52.8,196.1c4-1.7,5.8-2.3,5.8-2.3,1.2,8-4.6,11.5-17.2,10.3,6.3-4.6,4.6-15.5,16.1-12.1-2.9,2.9-4.6,4-4.6,4h0Z"/>
    <path class="cls-53" d="M124.2,203.6c3.4,2.3,5.2,2.9,5.2,2.9-5.7,4.6-10.9,2.3-16.7-7.5,6.9,2.9,14.4-4,16.7,5.8-3.4-.6-5.2-1.2-5.2-1.2h0Z"/>
    <path class="cls-30" d="M339.2,77.1c-5.2,1.1-7.5,2.3-7.5,2.3,5.8,8.1,13.8,6.9,25.3-4-10.4.6-17.2-11.5-24.7,1.2,4.6.6,6.9.6,6.9.6h0Z"/>
    <path class="cls-55" d="M319.7,188.1c-3.4-2.3-4.6-2.9-4.6-2.9-1.7,6.9,3.5,10.3,14.4,10.3-5.2-4.6-2.9-14.4-13.2-11.5,2.3,2.3,3.4,4,3.4,4h0Z"/>
    <path class="cls-5" d="M201.8,69.6c4,2.9,6.3,4.6,6.3,4.6-8.6,6.3-16.1,2.3-23.6-12.7,9.8,4,21.3-5.8,24.1,9.8-4.6-1.1-6.9-1.7-6.9-1.7h0Z"/>
    <path class="cls-43" d="M218.5,166.8c3.4,6.9,5.2,10.4,5.2,10.4-14.9,2.3-21.9-8.1-20.7-32.2,9.2,12.1,30.5,8.1,23.6,29.3-5.2-5.2-8.1-7.5-8.1-7.5h0Z"/>
    <path class="cls-12" d="M201.8,102.4c-2.3,4.6-3.5,7.5-3.5,7.5,10.4,1.1,15.5-6.3,14.4-22.4-6.3,8-21.3,5.2-16.1,20.1,3.5-3.5,5.2-5.2,5.2-5.2h0Z"/>
    <path class="cls-32" d="M205.2,115.6h-4.6c1.7,6.3,6.9,6.9,16.1,2.3-6.3-1.7-8.6-10.4-15.5-3.5,2.9.6,4,1.2,4,1.2h0Z"/>
    <path class="cls-31" d="M267.9,114.4c-4.6,2.9-7.5,4-7.5,4,8.1,7.5,16.1,4,24.7-10.4-9.8,3.5-20.1-7.5-24.7,7.5,5.2-.6,7.5-1.2,7.5-1.2h0Z"/>
    <path class="cls-16" d="M261.6,146.6c-1.2,4-1.2,6.3-1.2,6.3-7.5-3.5-6.9-10.4.6-20.7.6,8.6,10.9,13.2,1.1,20.1-.6-3.5-.6-5.8-.6-5.8h0Z"/>
    <path class="cls-22" d="M235.1,27c-3.4,7.5-5.8,10.9-5.8,10.9-11.5-10.9-6.9-23.6,13.2-38-3.5,15.5,13.2,29.9-8.6,38,.6-7.5,1.2-10.9,1.2-10.9h0Z"/>
    <path class="cls-44" d="M121.3,99.5h5.8c-1.7,6.9-8.1,8.1-18.4,3.5,6.9-2.3,9.2-12.7,17.2-5.2-2.9,1.2-4.6,1.7-4.6,1.7h0Z"/>
    <path class="cls-19" d="M427.2,229.5c-4-2.3-6.3-3.5-6.3-3.5-1.2,9.2,5.2,13.8,19.5,12.7-7.5-5.7-4.6-18.4-17.8-13.8,3.4,2.9,4.6,4.6,4.6,4.6h0Z"/>
    <path class="cls-4" d="M371.4,232.3c-5.2-2.3-8.1-3.4-8.1-3.4-1.1,10.9,6.9,16.1,24.2,14.9-8.6-6.9-5.8-22.4-21.9-17.2,4,4,5.7,5.7,5.7,5.7h0Z"/>
    <path class="cls-24" d="M70.1,232.9c5.8-2.9,8.1-4,8.1-4,1.7,11.5-6.3,16.7-24.7,16.1,9.2-7.5,6.3-23.6,22.4-17.8-3.4,3.4-5.8,5.8-5.8,5.8h0Z"/>
    <path class="cls-28" d="M85,235.8c.6-3.5,1.2-5.2,1.2-5.2,6.3,3.5,5.2,9.8-2.9,17.8.6-7.5-8.1-12.7,1.1-17.8,0,3.5.6,5.2.6,5.2h0Z"/>
    <path class="cls-54" d="M355.9,235.2c-1.1-3.5-1.7-5.2-1.7-5.2-6.3,3.5-5.2,9.8,2.9,17.8-.6-7.5,8-12.6-1.2-17.8v5.2h0Z"/>
    <path class="cls-49" d="M15.5,229.5c4.6-1.7,6.9-2.9,6.9-2.9,1.1,9.2-5.8,13.2-20.1,12.6,7.5-5.7,5.2-18.4,17.8-14.4-2.9,3.4-4.6,4.6-4.6,4.6h0Z"/>
  </g>
  <g class="cls-1">
    <text class="cls-2" transform="translate(18.7 347.7)"><tspan x="0" y="0">Plan_Matrix</tspan></text>
  </g>
</svg>