<?xml version="1.0" encoding="UTF-8"?>
<svg id="Layer_1" data-name="Layer 1" xmlns="http://www.w3.org/2000/svg" version="1.1" viewBox="0 0 464 463.3">
  <defs>
    <style>
      .cls-1 {
        fill: #231f20;
      }

      .cls-1, .cls-2 {
        fill-rule: evenodd;
        stroke-width: 0px;
      }

      .cls-2 {
        fill: #2e3192;
      }
    </style>
  </defs>
  <path class="cls-1" d="M153.6,309.6c-4,1.1-8.6,1.7-13.2,1.7h-2.9c-1.2.6-1.7.6-5.8,0-4.6-.6-9.2-.6-14.4,0-9.8,0-18.4,2.3-28.2,2.3s-9.2-5.2-15-2.3c-2.3,1.1-7.5.6-11.5,1.7l-2.9.6c-4.6,1.7-12.1,0-20.7-1.7-12.1-1.2-20.7,7.5-22.4,8.6,16.1-5.2,17.8-2.3,21.9-1.7,9.8,1.2,17.2,2.9,22.4,1.7l1.7-.6c-1.7,1.7-2.9,3.4-4,5.2-3.5,5.8-6.3,11.5-11.5,15.5,8.6-2.3,12.1-6.3,15.5-11.5,1.7-2.3,3.4-4.6,6.3-6.9,9.2-6.9,14.4-2.3,20.2-1.7,9.8,0,18.4-2.3,28.2-2.9,5.2,0,9.8,0,14.4.6,4.6.6,5.8,0,6.9,0,0-.6.6-.6,1.7-.6,16.1.6,22.4-8.1,28.7-2.9-20.7,13.8-27.6,12.1-44.3,13.8h-3.5c-12.7.6-20.1,5.7-28.2,11.5-3.5,2.9-6.9,5.2-11.5,8.1-2.9,1.7-5.8,2.9-8.6,3.4-3.5.6-6.9,1.2-9.8,1.7-9.2.6-14.9,5.2-20.7,9.8s-5.8,4.6-9.8,6.3c19.5-5.2,20.1-10.3,31.6-10.3,3.4-.6,5.7,0,9.2-1.2,4-.6,7.5-1.7,10.9-4,4-2.3,8.1-5.2,11.5-8.1,6.9-4.6,10.9-7.5,20.7-8.6-.6,2.9-.6,4-1.7,6.9-2.9,5.7-5.7,10.3-8.6,13.2-3.4,4-6.9,5.7-9.8,7.5-2.3,1.2-4.6,2.3-7.5,4.6-2.9,1.7-10.9,9.2-15,21.3,5.2-8.6,21.3-18.4,24.2-20.1,4-1.7,7.5-3.5,11.5-8,3.5-3.4,6.9-9.2,9.8-15,1.7-4,3.5-8.6,4-12.7h1.2c28.7,2.9,47.7-19.5,36.2,1.2-2.9,5.2-5.2,12.1-8.6,17.2-6.3,2.9-11.5,4-18.4,6.3-2.9.6-12.7,8.1-13.8,10.9,8.6-8,18.4-8,27-10.4l-5.2,6.3c-6.3,8.6-12.7,13.2-20.7,21.3-3.5,2.9-12.1,19-12.1,23.6,8.6-20.1,25.9-25.9,36.8-40.3l7.5-8.6c4.6-6.3,8-15.5,12.1-22.4,8-10.4,12.6-17.8,23.6-23.6,6.9-3.5,8.6,0-1.2,17.2-6.3,8.6-12.6,20.1-14.4,24.1-1.7,6.3-7.5,13.8-13.2,21.9l-1.7,2.3h0c-7.5,2.3-16.1,6.3-21.3,13.8l1.1-1.1c1.7-1.2,4-2.3,5.7-2.9,1.2-.6,1.7-.6,2.9-1.2,1.2-1.1,4.6-2.3,8-2.9-4.6,6.3-9.2,16.1-13.8,32.2l5.8-8.6c1.7-2.3,2.9-4.6,3.4-5.8,2.9-6.3,8.6-14.4,13.8-21.3,6.3-8.6,12.1-16.7,14.4-23.6,1.2-4,7.5-14.4,13.2-23,17.2-20.1,13.2.6,9.2,12.1-2.3,8.1-7.5,13.8-12.1,19.5-7.5,8.6-14.9,17.2-16.7,33.9l-.6,4c-1.2,6.3-4.6,16.7-6.9,21.3,10.9-10.4,10.4-17.2,11.5-26.5,1.7-13.8,9.8-20.1,16.1-28.2l2.9-2.9c.6,6.9-1.2,13.2-2.9,20.7-1.1,5.2-2.3,16.1-2.9,22.4-1.1,8.6,5.8,29.9,2.9,37.4,3.5-4,2.3-19.6,1.7-24.7v-2.9c0-9.8,1.7-23.6,3.5-30.5,2.3-9.2,4.6-17.8,2.3-28.8,2.3-3.4,4.6-7.5,6.3-12.1,4-12.7,9.2-15.5,12.1-14.4l-.6,2.9c-1.7,12.1-3.5,20.7-.6,36.2,0,2.9,1.2,6.9,2.3,12.1,2.3,8.6,4.6,19,4.6,23.6s.6,3.5.6,5.8c.6,3.5,1.1,7.5,1.1,12.1v2.3c4.6-13.8,2.3-32.2-1.1-46-1.2-4-1.7-8.6-2.3-11.5-2.9-15.5,0-62.1,12.7-23,1.1,4.6,3.5,8.6,5.8,12.1-2.3,10.9,0,19.5,2.3,28.8,1.7,6.9,3.4,15,3.4,24.7v2.9c0,5.2,0,11.5,2.9,15-2.3-6.9,2.9-19,2.3-27.6-1.2-6.3-2.3-11.5-3.4-16.7-1.7-7.5-3.5-13.8-2.9-20.7l2.9,2.9c6.3,8.1,14.4,14.4,16.1,28.2,1.2,9.2.6,16.1,11.5,26.5-1.7-4.6-5.7-15-6.3-21.3l-.6-4c-2.3-16.7-9.8-25.3-17.2-33.9-4.6-5.7-9.2-11.5-12.1-19.5-4-11.5-8.1-32.2,9.2-12.1,5.8,8.6,12.1,19,13.8,23,2.3,6.9,8,15,13.8,23.6,5.8,6.9,10.9,15,13.8,21.3.6,1.2,2.3,3.5,4,5.8l5.8,8.6c-5.2-16.1-9.8-25.9-13.8-32.2,2.9.6,6.3,1.7,8.1,2.9.6.6,1.7.6,2.9,1.2,1.7.6,3.5,1.7,5.8,2.9l1.1,1.1c-5.2-7.5-14.4-11.5-21.3-13.8h-.6l-1.7-2.3c-5.7-8.1-10.9-15.5-13.2-21.9-1.7-4-8-15.5-14.4-24.1-9.2-17.2-7.5-20.7-1.2-17.2,11.5,5.8,15.5,13.2,24.1,23.6,3.5,6.9,6.9,16.1,12.1,22.4l7.5,8.6c10.9,14.4,27.6,20.1,36.8,40.3-.6-4.6-8.6-20.7-12.1-23.6-8.6-8-15-12.6-21.3-21.3l-5.2-6.3c8.6,2.3,18.4,2.3,27,10.4-1.1-2.9-10.3-10.4-13.2-10.9-7.5-2.3-12.6-3.5-19-6.3-2.9-5.2-5.8-12.1-8.6-17.2-11.5-20.7,7.5,1.7,36.2-1.2h1.7c.6,4,1.7,8.6,4,12.7,2.3,5.8,6.3,11.5,9.2,15,4.6,4.6,8.1,6.3,11.5,8,3.5,1.7,19,11.5,24.2,20.1-3.5-12.1-12.1-19.5-15-21.3-2.3-2.3-4.6-3.4-6.9-4.6-3.5-1.7-6.3-3.4-10.4-7.5-2.3-2.9-5.8-7.5-8-13.2-1.7-2.9-1.2-4-1.7-6.9,9.2,1.1,13.8,4,20.7,8.6,3.4,2.9,6.9,5.8,11.5,8.1,3.5,2.3,6.9,3.5,10.4,4,3.4,1.2,5.8.6,9.2,1.2,12.1,0,12.1,5.2,31.6,10.3-3.4-1.7-6.9-4-9.8-6.3-5.8-4.6-10.9-9.2-20.1-9.8-3.5-.6-6.9-1.2-9.8-1.7-3.5-.6-6.3-1.7-9.2-3.4-4-2.9-8-5.2-10.9-8.1-8.6-5.8-15.5-10.9-28.2-11.5h-4c-16.7-1.7-23.6,0-43.7-13.8,5.8-5.2,12.7,3.5,28.2,2.9,1.2,0,1.7,0,2.3.6,1.1,0,2.3.6,6.9,0,4-.6,9.2-.6,13.8-.6,5.8.6,11.5-.6,16.7,0,13.2,1.1,17.2-7.5,32.2,3.4,2.3,2.3,4.6,5.2,6.3,7.5,3.5,4.6,6.3,9.2,15,10.9-5.2-3.5-8-9.8-10.9-15.5-1.7-1.7-2.9-3.4-4.6-5.2l1.7.6c5.2,1.7,12.7-.6,22.4-1.7,4-.6,5.7-3.5,21.9,1.1-1.7-.6-10.4-9.8-22.4-8-8.6,1.2-15.5,3.5-20.1,2.3l-2.9-1.1c-16.1-4.6-39.7,0-54.6-.6-13.2-1.2-24.1-2.3-32.2-3.5-25.9-4.6-48.3-2.9-75.3-2.9s-39.1-2.3-63.3,4.6h.3Z"/>
  <path class="cls-1" d="M196.7,163.3c.6-12.6,2.3-29.3,0-35.7l-4.1-12.6c-5.7-20.1-19-27.6-20.7-53.5-1.2,5.2,1.2,26.5,3.5,31,5.8,12.1,7.5,13.8,11.5,25.9l2.9,9.2c-8.6-6.3-19.5-10.3-25.3-22.4,0,3.4,6.9,15.5,9.8,17.8,7.5,5.2,10.4,9.8,16.1,15.5,1.1,6.9-.6,32.2,0,38.5,4,27.6-7.5-5.2-39.7-13.8l-1.7-.6c1.2-4.6,1.2-9.8.6-15.5,0-7.5-1.7-15.5-4-20.1-2.9-6.9-2.3-12.7-5.2-16.1-2.9-3.5-16.1-20.1-18.4-32.2-1.2,15.5,5.2,26.5,7.5,29.9,1.7,3.4,4,5.7,5.7,8,2.9,3.5,2.3,8.6,4.6,14.4,1.7,4,2.9,10.9,3.5,17.8.6,4-.6,5.2-1.1,8.6-18.4-9.8-17.2-23-28.2-31-3.5-2.3-6.3-2.9-10.4-4.6-12.7-5.2-4.6-1.7-23.6-15.5,2.9,3.4,5.2,7.5,7.5,10.9,4.6,7.5,2.9,5.2,12.1,10.3,3.5,1.7,6.9,3.5,10.3,5.8,11.5,8.1,10.4,25.3,34,35.7l4,1.7c17.2,8.6,25.9,9.8,42,33.4-8.6,2.9-12.1-9.2-29.9-15.5-1.1-.6-1.7-.6-1.7-1.1-1.2-.6-2.3-1.7-7.5-2.9-6.3-1.7-54-2.3-60.9-14.4-2.3-3.5-2.9-6.9-4-10.4-1.7-6.3-3.5-12.7-12.1-18.4,4,6.3,5.2,14.4,5.8,21.9.6,2.3,1.7,4.6,2.3,7.5l-1.7-1.1c-4.6-4-8-6.9-19.5-9.8-4.6-1.1-7.5,1.2-23-10.9,1.1,1.7,7.5,15.5,20.7,18.4,10.3,2.9,13.2,5.2,17.8,8.6l2.9,2.3c4.1,2.9,9.8,4,12.1,6.3,5.2,5.7,55.2,6.9,57.5,7.5,4,1.1,4.6,1.7,5.7,2.3.6.6,1.1,1.2,3.5,1.7,8.1,2.9,14.9,7.5,20.7,13.2,8.1,8.6,19,5.8,21.9,15-34.5-12.1-55.8-5.8-92,2.9l-1.7.6c-4.6-9.2-16.7-21.3-25.9-25.9-6.3-4-10.9-4.6-16.1-5.7-4-.6-25.9-5.8-34.5-13.8,8.6,12.7,20.7,17.8,24.7,19,3.4,1.7,6.9,2.3,9.8,2.9,4.6.6,8.6,1.1,14.4,4.6,4.1,2.3,9.2,6.9,14.4,12.1,2.3,2.9,2.9,4.6,4.6,7.5-21.3,4-19.5-5.2-39.1-4-4,.6-6.9,1.7-10.9,2.9-13.2,4-15.5-1.7-40.2-.6,5.2.6,9.2,2.3,13.8,4,8,2.9,16.1,5.7,27,3.4,30.5-6.3,31,9.8,57.5,2.3l4.6-1.1c40.2-8.6,106.4-5.2,97.2,46-2.3,12.7-8.6,16.1-21.9,14.4-1.2,0-2.3,0-6.9,1.1-4,1.2-9.2,1.7-13.8,2.3h-29.9c-4.6,0-28.2.6-31.1,1.2-20.7,1.7-40.8-2.3-62.1-.6-4,1.2-10.4,3.5-27,1.2,1.2,0,11.5,8,23,5.2,8.6-2.9,14.4-.6,19.5,0l7.5.6c4,0,22.4-1.2,25.3,0,5.7,2.3,9.8,1.7,14.4.6,2.9,0,26.4-.6,30.5-.6,5.8,0,24.2,0,30.5-.6,14.9-1.1,92-1.1,109.3.6,6.3.6,25.3.6,30.5,0,4,0,27.6.6,30.5,1.1,4.6.6,22.4,1.2,28.2-1.1,2.9-.6,7.5.6,12.1,0l2.9-.6c4.6-.6,10.9-2.9,19.5,0,11.5,2.9,21.9-5.2,23-5.2-16.7,2.3-23,0-27-1.2-21.3-1.7-36.8,2.3-57.5.6-2.9-.6-26.5-1.2-31-1.2s-19.6-1.1-25.3-1.7c-20.1-1.7-29.3-5.7-30.5-12.6-5.2-31.1-23-40.3,28.2-54.6,1.7.6,2.3,0,3.4,0s2.3,0,7.5,1.2c6.3,1.1,13.8,2.3,21.3,2.9,8.6.6,43.1,2.9,53.5,1.2,15-2.3,25.9-2.9,40.3-1.7,14.9,1.2,27-8.6,28.7-9.2-24.1,4-27.6,2.9-33.4,1.7-7.5-2.3-7.5-2.9-15.5-1.7,2.9-2.3,17.8-14.4,19.5-16.7,5.8-8.1,10.9-16.7,19-20.7-12.7,1.1-17.8,6.9-23.6,13.2-3.5,3.4-19,16.7-23.6,19.6-16.7,9.8-43.7,5.7-63.8,4.6-7.5-.6-14.4-1.2-20.7-2.9-21.3-4.6-23.6-1.7-44.3,1.7,10.3-21.9,50.6-27.6,74.2-29.3,10.4-1.2,20.1,0,30.5-1.7,15.5-3.4,12.1-6.3,34.5,0-17.2-14.4-36.2-5.8-46-5.8s-4,.6-6.9.6h-.6c5.2-3.5,9.8-6.9,14.9-11.5,4-3.4,1.2-1.7,6.3-5.2,3.5-2.3,7.5-4,11.5-5.2,3.5-1.7,8.1-2.3,12.1-2.9,11.5-2.3,9.2-.6,16.1-6.9,3.5-3.5,6.9-6.3,11.5-9.2-24.1,8.6-15.5,7.5-29.9,8.6-4.6.6-7.5.6-12.1,1.7-4,1.7-8.6,3.4-12.6,6.3-5.2,3.5-2.9,2.3-6.9,5.8-8.6,6.9-13.8,10.9-25.3,13.2.6-3.4,0-5.2,1.1-9.2,9.8-24.7,10.9-17.2,25.9-30.5,3.4-2.9,16.1-12.7,19.5-28.8-13.2,26.4-37.9,20.1-51.2,55.2-2.3,5.8-4,11.5-4,16.1l-2.3.6c-25.9-1.2-55.8,23-45.4,1.1,3.5-6.3,17.2-27,20.7-33.9,7.5-4.6,13.8-6.3,23-9.2,3.5-1.7,14.4-11.5,15.5-15.5-9.8,10.9-21.9,12.1-32.8,15.5l5.8-8.6c7.5-10.9,15-17.8,24.7-28.2,4-4.6,13.8-25.3,13.2-31.1-9.8,25.9-30.5,35.1-43.1,53.5l-8.6,12.1c-5.2,8.1-20.1,32.2-24.1,41.4-7.5,10.4-12.1,19-20.7,25.9,0-2.9,0-5.7.6-8.6,0-12.6,4.6-23.6,9.2-33.9,4-9.8,8.6-20.1,10.3-32.2l.6-1.2c8.1-15.5,3.5-15.5,23.6-22.4,5.7-1.7,10.9-3.4,15.5-11.5-5.2,4-12.1,5.2-19,6.3-1.7.6-4,1.1-6.3,2.3l1.1-1.7c2.9-4,6.9-9.8,8.6-20.1,1.1-4-1.2-6.3,8.6-21.3-1.1,1.7-13.2,7.5-14.9,19.6-1.7,9.2-5.8,14.4-8.6,19l-1.7,2.3c-2.3,3.4-2.9,9.2-5.2,10.9-2.3,2.9-4.1,5.2-5.2,7.5,0-1.7-.6-4-.6-5.7l-1.2-6.9c-1.7-9.8-.6-27,.6-35.1-12.1,21.3-8.1,31.1-5.8,44.9,4,21.8-1.7,24.7-8,39.7l-2.9,5.8c-4-10.4-4.6-20.7-5.2-32.2-.6-8.1-3.5-25.9-5.2-35.6-2.9-12.7-20.1-32.8-19-44.9-3.4,7.5,5.8,29.9,8.1,37.4l1.1,4c4.6,15,5.8,27.6,6.3,38.5,1.2,15,1.7,28.8,9.8,44.3-1.7,6.3-3.5,13.2-3.5,20.7-3.4,43.1-31.6-13.2-30.5-34.5h0l-.3-.5Z"/>
  <path class="cls-2" d="M108.1,93.7c5.2,2.3,7.5,3.4,7.5,3.4-6.9,7.5-15.5,4.6-24.7-8,9.8,2.3,19-8.6,24.7,5.2-5.2-.6-7.5-.6-7.5-.6h0Z"/>
  <path class="cls-2" d="M438.8,221.9c-5.8,4-9.2,6.3-9.2,6.3,10.9,8.6,21.8,3.4,32.2-15.5-13.2,4.6-27.6-8.6-32.8,11.5,6.9-1.7,9.8-2.3,9.8-2.3h0Z"/>
  <path class="cls-2" d="M69,134.5c6.3,6.9,9.8,9.8,9.8,9.8,8.6-16.1-.6-28.2-28.2-36.8,9.8,16.1-3.4,38,23.6,38.5-3.4-7.5-5.2-11.5-5.2-11.5h0Z"/>
  <path class="cls-2" d="M333.5,68.4c-.6,8.1-.6,12.1-.6,12.1,15.5-4,17.8-17.2,6.3-39.7-4,15.5-25.9,20.1-10.4,38,2.9-6.9,4.6-10.3,4.6-10.3h.1Z"/>
  <path class="cls-2" d="M392.8,119.6c-4,6.3-5.7,9.2-5.7,9.2,13.8,3.4,21.3-5.8,22.4-27.6-9.8,10.3-28.8,4.6-24.7,24.7,5.2-4,8-6.3,8-6.3h0Z"/>
  <path class="cls-2" d="M140.3,208.7c4,5.2,6.3,7.5,6.3,7.5-11.5,4.6-19-2.9-22.4-21.9,9.8,8.1,25.3,1.2,23.6,19-4.6-2.9-7.5-4.6-7.5-4.6h0Z"/>
  <path class="cls-2" d="M391,175.9c-5.7,3.4-9.2,5.2-9.2,5.2,9.8,9.8,20.7,5.2,32.2-12.7-13.2,4-26.5-10.4-32.2,9.2,6.3-1.1,9.2-1.7,9.2-1.7h0Z"/>
  <path class="cls-2" d="M285.8,167.9c-4.6,2.3-7.5,4-7.5,4,8,8,17.2,4,26.5-10.4-10.9,2.9-21.9-8.6-26.5,7.5,5.2-1.1,7.5-1.1,7.5-1.1h0Z"/>
  <path class="cls-2" d="M120.2,70.7v15.5c-19-5.7-21.3-22.4-6.9-50,4.6,19.5,32.2,26.5,12.1,47.7-3.4-8.6-5.2-13.2-5.2-13.2h0Z"/>
  <path class="cls-2" d="M291.6,60.3c-6.9,5.2-10.3,7.5-10.3,7.5-4.6-15.5,5.1-24.1,29.9-27-10.9,11.5-2.9,32.8-25.9,28.8,4-5.8,6.3-9.2,6.3-9.2h0Z"/>
  <path class="cls-2" d="M326.6,123c-5.2,6.9-7.5,9.8-7.5,9.8,15.5,5.2,24.2-4.6,27.6-29.3-12.1,10.9-32.8,2.9-29.3,25.9,5.8-4,9.2-6.3,9.2-6.3h0Z"/>
  <path class="cls-2" d="M299.6,93.7c-4.6,6.3-6.9,9.2-6.9,9.2,13.8,5.2,22.4-3.5,25.9-25.9-10.9,9.2-29.9,1.2-27.6,22.4,5.8-3.4,8.6-5.7,8.6-5.7h0Z"/>
  <path class="cls-2" d="M167.4,152.9c-2.9,6.3-4,9.2-4,9.2-10.3-8-7.5-19,8.6-32.2-2.3,13.2,12.7,24.2-5.2,32.2,0-6.3.6-9.2.6-9.2h0Z"/>
  <path class="cls-2" d="M429,184.6c-9.2,1.7-13.8,2.3-13.8,2.3,1.7-17.8,16.7-23,43.7-14.4-16.7,7.5-18.4,33.4-41.4,18.4,7.5-4.6,11.5-6.3,11.5-6.3h0Z"/>
  <path class="cls-2" d="M161,97.7c2.3,9.2,3.5,13.8,3.5,13.8-17.8-1.2-23.6-15.5-17.2-43.1,8.6,16.7,34.5,16.1,21.3,39.7-5.2-6.9-7.5-10.3-7.5-10.3h-.1Z"/>
  <path class="cls-2" d="M407.7,144.3c-7.5,5.8-10.9,9.2-10.9,9.2,15.5,9.2,28.1.6,37.9-25.9-16.1,8.6-36.8-5.2-39.1,21.3,8.1-3.4,12.1-4.6,12.1-4.6h0Z"/>
  <path class="cls-2" d="M255.9,66.7c-5.8,8.6-9.2,13.2-9.2,13.2-13.2-16.1-5.2-32.2,24.1-47.7-7.5,20.1,12.1,42.6-18.4,48.9,2.3-9.8,3.5-14.4,3.5-14.4h0Z"/>
  <path class="cls-2" d="M367.5,106.4c-1.7,8.6-2.9,13.2-2.9,13.2,17.8-1.2,23-15.5,15.5-42-8,16.1-32.8,16.7-19,39.1,4-6.9,6.3-10.3,6.3-10.3h.1Z"/>
  <path class="cls-2" d="M205.3,46c-2.3,9.8-3.4,14.4-3.4,14.4-16.1-9.8-14.4-25.9,5.2-47.7,0,19,23.6,31.6,0,46.6-1.1-8.6-1.7-13.2-1.7-13.2h-.1Z"/>
  <path class="cls-2" d="M172,55.2c-1.7,9.8-2.9,15-2.9,15-17.2-9.8-16.1-26.5,4-50.6,0,20.1,25.3,32.8,1.1,49.4-1.1-9.2-2.3-13.8-2.3-13.8h0Z"/>
  <path class="cls-2" d="M32.2,143.7c5.2,8,7.5,12.1,7.5,12.1-17.2,4-27-7.5-28.2-35.1,12.1,12.7,36.2,5.2,30.5,31.1-6.3-5.2-9.8-8-9.8-8h0Z"/>
  <path class="cls-2" d="M74.8,99.4c4.6,8.1,6.9,12.1,6.9,12.1-17.8,3.5-26.5-8.6-26.5-36.8,11.5,13.8,35.7,7.5,29.3,32.8-6.3-5.8-9.8-8.1-9.8-8.1h.1Z"/>
  <path class="cls-2" d="M24.2,175.4c4.6,7.5,6.9,11.5,6.9,11.5-17.2,4.6-26.5-7.5-28.2-35.1,12.7,13.2,36.2,5.8,31,31.1-6.3-5.2-9.8-7.5-9.8-7.5h0Z"/>
  <path class="cls-2" d="M358.3,144.9c-5.2,2.9-8,4.6-8,4.6,8.6,7.5,17.2,4,27-10.9-10.9,3.4-21.9-8-27,8.1,5.2-1.1,8-1.7,8-1.7h0Z"/>
  <path class="cls-2" d="M301.9,205.2c-5.8-1.7-8.6-2.9-8.6-2.9,0,11.5,8.6,16.1,25.9,12.7-9.8-5.8-8.6-21.9-23.6-14.4,4,2.9,6.3,4.6,6.3,4.6h0Z"/>
  <path class="cls-2" d="M348.5,213.3c-3.4,6.3-4.6,9.8-4.6,9.8,13.8,1.7,20.1-8,19-30.5-8.6,11.5-28.2,8.1-21.9,27.6,5.2-4.6,7.5-6.9,7.5-6.9h0Z"/>
  <path class="cls-2" d="M411.8,211c-4.6,1.1-7.5,1.7-7.5,1.7,5.2,8.6,13.8,7.5,25.3-2.9-10.4.6-16.7-12.1-24.7.6,4.6.6,6.9.6,6.9.6h0Z"/>
  <path class="cls-2" d="M65,178.8c5.8,1.1,8.6,1.7,8.6,1.7-5.8,9.8-15,9.2-28.2-2.3,10.9,0,18.4-14.4,27.6-.6-5.2.6-8.1,1.2-8.1,1.2h0Z"/>
  <path class="cls-2" d="M82.8,186.9c3.4-1.7,5.2-2.9,5.2-2.9,1.7,7.5-2.9,10.9-14.4,12.1,5.2-5.2,2.3-15.5,12.7-13.2-2.3,2.9-3.4,4-3.4,4h0Z"/>
  <path class="cls-2" d="M236.3,83.4c4.1,3.4,5.8,5.2,5.8,5.2-8.6,5.2-16.1,0-21.3-15,9.2,5.2,21.3-2.3,21.9,12.6-4-1.7-6.3-2.9-6.3-2.9h0Z"/>
  <path class="cls-2" d="M161.6,120.2h5.8c-1.7,6.9-8,8.1-18.4,3.4,7.5-2.3,9.2-12.1,17.8-5.2-3.5,1.2-5.2,1.7-5.2,1.7h0Z"/>
  <path class="cls-2" d="M105.2,144.9c5.8,0,8.1-.6,8.1-.6-2.3,10.9-11.5,12.1-26.4,5.2,10.3-2.9,13.2-17.8,25.3-7.5-4.6,1.7-6.9,2.9-6.9,2.9h0Z"/>
  <path class="cls-2" d="M115,157c2.9-2.9,4-4,4-4,3.4,6.3,0,11.5-11.5,14.9,4-6.3-1.7-15.5,9.8-15.5-1.7,2.9-2.3,4.6-2.3,4.6h0Z"/>
  <path class="cls-2" d="M29.4,205.2c8.1,1.7,12.1,2.3,12.1,2.3-7.5,13.8-20.7,13.2-39.7-2.3,16.1-.6,25.3-20.7,39.1-1.7-7.5,1.2-11.5,1.7-11.5,1.7h0Z"/>
  <path class="cls-2" d="M52.3,208.7c4-1.7,5.8-2.3,5.8-2.3,1.2,8-4.6,11.5-17.2,10.3,6.3-4.6,4.6-15.5,16.1-12.1-2.9,2.9-4.6,4-4.6,4h-.1Z"/>
  <path class="cls-2" d="M123.7,216.2c3.4,2.3,5.2,2.9,5.2,2.9-5.7,4.6-10.9,2.3-16.7-7.5,6.9,2.9,14.4-4,16.7,5.8-3.4-.6-5.2-1.2-5.2-1.2h0Z"/>
  <path class="cls-2" d="M338.7,89.7c-5.2,1.1-7.5,2.3-7.5,2.3,5.8,8.1,13.8,6.9,25.3-4-10.4.6-17.2-11.5-24.7,1.2,4.6.6,6.9.6,6.9.6h0Z"/>
  <path class="cls-2" d="M319.2,200.7c-3.4-2.3-4.6-2.9-4.6-2.9-1.7,6.9,3.5,10.3,14.4,10.3-5.2-4.6-2.9-14.4-13.2-11.5,2.3,2.3,3.4,4,3.4,4h0Z"/>
  <path class="cls-2" d="M201.3,82.2c4,2.9,6.3,4.6,6.3,4.6-8.6,6.3-16.1,2.3-23.6-12.7,9.8,4,21.3-5.8,24.1,9.8-4.6-1.1-6.9-1.7-6.9-1.7h0Z"/>
  <path class="cls-2" d="M218,179.4c3.4,6.9,5.2,10.4,5.2,10.4-14.9,2.3-21.9-8.1-20.7-32.2,9.2,12.1,30.5,8.1,23.6,29.3-5.2-5.2-8.1-7.5-8.1-7.5h0Z"/>
  <path class="cls-2" d="M201.3,115c-2.3,4.6-3.5,7.5-3.5,7.5,10.4,1.1,15.5-6.3,14.4-22.4-6.3,8-21.3,5.2-16.1,20.1l5.2-5.2h0Z"/>
  <path class="cls-2" d="M204.7,128.2h-4.6c1.7,6.3,6.9,6.9,16.1,2.3-6.3-1.7-8.6-10.4-15.5-3.5,2.9.6,4,1.2,4,1.2h0Z"/>
  <path class="cls-2" d="M267.4,127c-4.6,2.9-7.5,4-7.5,4,8.1,7.5,16.1,4,24.7-10.4-9.8,3.5-20.1-7.5-24.7,7.5,5.2-.6,7.5-1.2,7.5-1.2h0Z"/>
  <path class="cls-2" d="M261.1,159.2c-1.2,4-1.2,6.3-1.2,6.3-7.5-3.5-6.9-10.4.6-20.7.6,8.6,10.9,13.2,1.1,20.1-.6-3.5-.6-5.8-.6-5.8h.1Z"/>
  <path class="cls-2" d="M234.6,39.6c-3.4,7.5-5.8,10.9-5.8,10.9-11.5-10.9-6.9-23.6,13.2-38-3.5,15.5,13.2,29.9-8.6,38,.6-7.5,1.2-10.9,1.2-10.9h0Z"/>
  <path class="cls-2" d="M120.8,112.1h5.8c-1.7,6.9-8.1,8.1-18.4,3.5,6.9-2.3,9.2-12.7,17.2-5.2-2.9,1.2-4.6,1.7-4.6,1.7h0Z"/>
  <path class="cls-2" d="M426.7,242.1c-4-2.3-6.3-3.5-6.3-3.5-1.2,9.2,5.2,13.8,19.5,12.7-7.5-5.7-4.6-18.4-17.8-13.8,3.4,2.9,4.6,4.6,4.6,4.6h0Z"/>
  <path class="cls-2" d="M370.9,244.9c-5.2-2.3-8.1-3.4-8.1-3.4-1.1,10.9,6.9,16.1,24.2,14.9-8.6-6.9-5.8-22.4-21.9-17.2,4,4,5.7,5.7,5.7,5.7h0Z"/>
  <path class="cls-2" d="M69.6,245.5c5.8-2.9,8.1-4,8.1-4,1.7,11.5-6.3,16.7-24.7,16.1,9.2-7.5,6.3-23.6,22.4-17.8-3.4,3.4-5.8,5.8-5.8,5.8h0Z"/>
  <path class="cls-2" d="M84.5,248.4c.6-3.5,1.2-5.2,1.2-5.2,6.3,3.5,5.2,9.8-2.9,17.8.6-7.5-8.1-12.7,1.1-17.8,0,3.5.6,5.2.6,5.2h0Z"/>
  <path class="cls-2" d="M355.4,247.8c-1.1-3.5-1.7-5.2-1.7-5.2-6.3,3.5-5.2,9.8,2.9,17.8-.6-7.5,8-12.6-1.2-17.8v5.2h0Z"/>
  <path class="cls-2" d="M15,242.1c4.6-1.7,6.9-2.9,6.9-2.9,1.1,9.2-5.8,13.2-20.1,12.6,7.5-5.7,5.2-18.4,17.8-14.4-2.9,3.4-4.6,4.6-4.6,4.6h0Z"/>
</svg>